<?xml version="1.0" encoding="UTF-8"?>
<svg width="400" height="400" viewBox="0 0 400 400" fill="none" xmlns="http://www.w3.org/2000/svg">
  <rect width="400" height="400" fill="#E5E7EB"/>
  <path d="M200 180C222.091 180 240 162.091 240 140C240 117.909 222.091 100 200 100C177.909 100 160 117.909 160 140C160 162.091 177.909 180 200 180Z" fill="#4B5563"/>
  <path d="M200 200C155.817 200 120 235.817 120 280V300H280V280C280 235.817 244.183 200 200 200Z" fill="#4B5563"/>
  <path d="M160 160C160 160 180 180 200 180C220 180 240 160 240 160" stroke="#374151" stroke-width="8" stroke-linecap="round"/>
</svg> 